<svg id="svg" version="1.1" xmlns="http://www.w3.org/2000/svg" xmlns:xlink="http://www.w3.org/1999/xlink" width="400" height="400" viewBox="0, 0, 400,400"><g id="svgg"><path id="path0" d="M17.200 52.000 L 17.200 75.200 99.000 75.200 L 180.800 75.200 180.800 52.000 L 180.800 28.800 99.000 28.800 L 17.200 28.800 17.200 52.000 M202.800 94.958 C 202.800 161.054,202.869 164.873,204.219 173.000 C 210.559 211.170,241.475 240.034,280.900 244.592 L 283.200 244.858 283.200 221.477 L 283.200 198.097 280.550 197.432 C 265.748 193.713,254.129 180.967,250.846 164.844 C 250.005 160.712,250.000 160.312,250.000 94.744 L 250.000 28.800 226.400 28.800 L 202.800 28.800 202.800 94.958 M330.043 95.900 C 330.216 169.740,330.394 163.598,327.868 171.008 C 323.351 184.257,311.997 194.497,298.100 197.854 C 297.707 197.949,297.600 202.987,297.600 221.380 L 297.600 244.785 299.500 244.561 C 338.054 240.014,367.033 213.320,375.884 174.200 L 376.970 169.400 377.095 99.100 L 377.219 28.800 353.553 28.800 L 329.886 28.800 330.043 95.900 M76.670 89.063 C 76.521 89.212,76.400 124.045,76.400 166.470 L 76.400 243.606 99.700 243.503 L 123.000 243.400 123.000 166.200 L 123.000 89.000 99.970 88.897 C 87.303 88.840,76.818 88.915,76.670 89.063 M152.098 338.219 L 152.200 376.437 159.500 376.519 L 166.800 376.600 166.800 338.300 L 166.800 300.000 159.398 300.000 L 151.996 300.000 152.098 338.219 M218.800 338.133 C 218.800 359.107,218.875 376.342,218.967 376.433 C 219.058 376.525,230.488 376.552,244.367 376.494 L 269.600 376.388 269.600 369.994 L 269.600 363.600 251.800 363.600 L 234.000 363.600 234.000 354.005 L 234.000 344.410 249.100 344.305 L 264.200 344.200 264.310 337.900 L 264.420 331.600 249.210 331.600 L 234.000 331.600 234.000 322.400 L 234.000 313.200 251.800 313.200 L 269.600 313.200 269.600 306.600 L 269.600 300.000 244.200 300.000 L 218.800 300.000 218.800 338.133 M318.800 338.300 L 318.800 376.600 326.100 376.519 L 333.400 376.438 333.600 352.919 L 333.800 329.400 335.800 332.520 C 336.900 334.235,339.420 338.121,341.400 341.153 C 343.380 344.186,347.036 349.802,349.525 353.634 C 352.014 357.465,355.984 363.570,358.348 367.200 C 360.712 370.830,362.989 374.385,363.409 375.100 L 364.172 376.400 370.886 376.400 L 377.600 376.400 377.600 338.200 L 377.600 300.000 370.200 300.000 L 362.800 300.000 362.800 323.400 C 362.800 336.270,362.665 346.796,362.500 346.791 C 362.335 346.786,360.676 344.401,358.813 341.491 C 356.949 338.581,353.430 333.140,350.992 329.400 C 348.553 325.660,345.267 320.620,343.690 318.200 C 342.112 315.780,338.814 310.695,336.362 306.900 L 331.902 300.000 325.351 300.000 L 318.800 300.000 318.800 338.300 M21.338 302.293 C 21.471 303.114,22.381 306.669,23.360 310.193 C 25.065 316.327,27.750 326.312,33.421 347.600 C 34.856 352.990,36.645 359.650,37.396 362.400 C 38.147 365.150,39.357 369.650,40.086 372.400 L 41.411 377.400 47.572 377.400 L 53.733 377.400 54.234 375.800 C 54.510 374.920,55.663 371.140,56.797 367.400 C 59.906 357.145,62.951 347.202,65.402 339.300 C 66.614 335.395,67.604 331.975,67.602 331.700 C 67.594 330.059,68.546 331.760,69.617 335.300 C 70.299 337.555,71.823 342.550,73.003 346.400 C 76.656 358.313,78.013 362.790,79.790 368.800 C 80.733 371.990,81.787 375.275,82.132 376.100 L 82.759 377.600 88.780 377.600 C 92.091 377.600,94.800 377.503,94.800 377.384 C 94.800 377.266,95.631 374.161,96.647 370.484 C 97.663 366.808,98.988 361.910,99.590 359.600 C 100.192 357.290,101.806 351.260,103.176 346.200 C 104.546 341.140,106.899 332.410,108.405 326.800 C 109.912 321.190,112.057 313.214,113.172 309.075 C 114.287 304.936,115.200 301.381,115.200 301.175 C 115.200 300.955,112.077 300.800,107.644 300.800 L 100.088 300.800 99.297 303.900 C 98.862 305.605,96.173 316.413,93.320 327.917 C 90.468 339.421,87.983 348.835,87.798 348.836 C 87.613 348.838,86.700 346.175,85.770 342.920 C 84.840 339.664,82.898 332.950,81.453 328.000 C 78.598 318.216,74.046 302.629,73.710 301.489 C 73.521 300.846,72.984 300.789,68.050 300.889 L 62.600 301.000 61.320 305.400 C 58.853 313.879,55.178 326.475,52.771 334.700 C 51.435 339.265,49.952 344.395,49.474 346.100 C 48.997 347.805,48.497 349.200,48.363 349.200 C 48.230 349.200,46.470 342.495,44.453 334.300 C 42.437 326.105,39.755 315.217,38.493 310.105 L 36.200 300.809 28.648 300.805 L 21.095 300.800 21.338 302.293 " stroke="none" fill="#fbfbfb" fill-rule="evenodd"></path><path id="path1" d="M0.000 200.000 L 0.000 400.000 200.000 400.000 L 400.000 400.000 400.000 200.000 L 400.000 0.000 200.000 0.000 L 0.000 0.000 0.000 200.000 M181.120 28.480 C 181.482 28.842,181.600 34.629,181.600 52.072 L 181.600 75.185 180.700 75.402 C 180.205 75.521,143.170 75.569,98.400 75.509 L 17.000 75.400 16.896 52.200 C 16.839 39.440,16.878 28.775,16.984 28.500 C 17.258 27.783,180.403 27.763,181.120 28.480 M250.425 95.800 C 250.645 161.482,250.704 164.539,251.816 167.800 C 257.153 183.446,266.485 192.903,280.699 197.068 L 283.199 197.800 283.199 221.500 L 283.200 245.200 281.700 245.198 C 275.402 245.192,261.438 241.385,252.800 237.320 C 226.327 224.863,208.460 201.053,203.333 171.400 C 202.660 167.510,201.932 30.197,202.575 28.522 C 202.740 28.091,207.143 28.013,226.489 28.097 L 250.200 28.200 250.425 95.800 M377.400 98.000 L 377.400 167.800 376.490 172.800 C 373.818 187.491,368.439 199.492,358.742 212.400 C 346.168 229.138,321.096 243.094,300.094 245.046 L 297.200 245.315 297.201 221.557 L 297.203 197.800 301.301 196.448 C 317.019 191.262,328.004 177.558,329.501 161.272 C 329.676 159.362,329.711 128.910,329.577 93.600 C 329.441 57.404,329.487 29.093,329.683 28.697 C 330.011 28.036,331.458 28.000,353.716 28.097 L 377.400 28.200 377.400 98.000 M123.501 166.292 L 123.602 243.984 122.701 244.203 C 122.205 244.323,111.630 244.371,99.200 244.311 L 76.600 244.200 76.499 166.297 L 76.398 88.394 99.899 88.497 L 123.400 88.600 123.501 166.292 M167.502 337.957 C 167.577 366.168,167.485 376.257,167.146 376.665 C 166.780 377.106,165.186 377.195,159.244 377.109 L 151.800 377.000 151.697 338.800 C 151.640 317.790,151.681 300.371,151.788 300.091 C 151.937 299.699,153.741 299.607,159.691 299.691 L 167.400 299.800 167.502 337.957 M269.909 306.700 L 270.019 313.600 252.002 313.600 L 233.984 313.600 234.092 322.300 L 234.200 331.000 249.300 331.105 L 264.400 331.210 264.400 338.005 L 264.400 344.800 249.192 344.800 L 233.985 344.800 234.092 353.900 L 234.200 363.000 252.109 363.104 L 270.019 363.208 269.909 370.104 L 269.800 377.000 244.200 377.000 L 218.600 377.000 218.497 338.800 C 218.440 317.790,218.480 300.374,218.585 300.097 C 218.737 299.699,224.092 299.616,244.289 299.697 L 269.800 299.800 269.909 306.700 M333.161 301.300 C 333.826 302.235,335.988 305.520,337.965 308.600 C 339.941 311.680,341.937 314.740,342.400 315.400 C 342.863 316.060,344.846 319.120,346.808 322.200 C 348.769 325.280,350.746 328.340,351.201 329.000 C 351.656 329.660,353.486 332.450,355.266 335.200 C 357.047 337.950,359.379 341.520,360.449 343.133 L 362.393 346.065 362.497 322.933 L 362.600 299.800 370.200 299.800 L 377.800 299.800 377.800 338.400 L 377.800 377.000 371.000 377.000 L 364.200 377.000 361.800 373.398 C 360.480 371.417,358.064 367.727,356.431 365.198 C 352.972 359.840,348.219 352.507,345.802 348.800 C 343.708 345.588,338.824 338.037,336.179 333.922 L 334.200 330.844 334.000 353.922 L 333.800 377.000 326.200 377.000 L 318.600 377.000 318.498 338.300 L 318.396 299.600 325.173 299.600 L 331.950 299.600 333.161 301.300 M36.955 301.500 C 37.070 301.885,37.876 305.260,38.746 309.000 C 39.616 312.740,40.859 317.870,41.509 320.400 C 42.159 322.930,43.923 330.040,45.430 336.200 C 46.937 342.360,48.221 347.475,48.285 347.567 C 48.541 347.938,48.830 347.072,51.009 339.397 C 56.149 321.290,56.849 318.870,57.779 316.000 C 58.313 314.350,59.504 310.250,60.425 306.890 L 62.099 300.780 68.111 300.890 L 74.124 301.000 75.226 304.800 C 80.702 323.665,86.254 342.644,87.103 345.400 L 87.842 347.800 88.550 345.200 C 88.939 343.770,90.212 338.730,91.378 334.000 C 94.182 322.635,95.411 317.704,97.060 311.200 C 97.813 308.230,98.707 304.675,99.047 303.300 L 99.665 300.800 107.803 300.800 L 115.941 300.800 114.360 306.700 C 111.600 317.000,109.514 324.737,101.557 354.200 C 100.487 358.160,98.691 364.910,97.565 369.200 C 96.439 373.490,95.334 377.225,95.110 377.500 C 94.265 378.536,82.452 378.175,82.025 377.100 C 81.325 375.338,78.442 366.138,77.419 362.400 C 76.848 360.310,76.189 358.153,75.955 357.606 C 75.722 357.059,74.565 353.369,73.385 349.406 C 68.628 333.433,68.122 331.889,67.898 332.643 C 66.208 338.327,63.132 348.468,60.813 356.000 C 59.222 361.170,57.210 367.793,56.343 370.718 C 55.476 373.644,54.565 376.479,54.319 377.018 L 53.872 378.000 47.551 378.000 L 41.231 378.000 40.797 376.300 C 40.558 375.365,40.190 374.150,39.980 373.600 C 39.769 373.050,38.584 368.730,37.346 364.000 C 36.108 359.270,34.127 351.800,32.945 347.400 C 29.886 336.016,26.642 323.871,24.186 314.600 C 23.020 310.200,21.691 305.341,21.233 303.801 C 20.775 302.262,20.400 300.957,20.400 300.901 C 20.400 300.302,36.774 300.894,36.955 301.500 " stroke="none" fill="#046bab" fill-rule="evenodd"></path><path id="path2" d="M202.595 94.200 C 202.595 130.280,202.642 144.981,202.700 126.868 C 202.758 108.756,202.758 79.236,202.700 61.268 C 202.642 43.301,202.595 58.120,202.595 94.200 M329.784 98.400 C 329.784 108.190,329.836 112.195,329.900 107.300 C 329.963 102.405,329.963 94.395,329.900 89.500 C 329.836 84.605,329.784 88.610,329.784 98.400 M123.200 166.480 C 123.090 209.094,123.135 243.825,123.301 243.659 C 123.467 243.493,123.557 208.627,123.501 166.179 L 123.400 89.000 123.200 166.480 M229.583 221.300 C 231.241 223.066,231.600 223.384,231.600 223.083 C 231.600 223.019,230.745 222.164,229.700 221.183 L 227.800 219.400 229.583 221.300 M218.592 338.200 C 218.592 359.320,218.641 367.901,218.700 357.270 C 218.759 346.638,218.759 329.358,218.700 318.870 C 218.641 308.381,218.592 317.080,218.592 338.200 M269.689 306.496 L 269.600 313.192 251.700 313.300 L 233.800 313.408 251.713 313.504 C 266.040 313.581,269.665 313.497,269.823 313.084 C 269.932 312.800,269.966 309.695,269.900 306.184 L 269.778 299.800 269.689 306.496 M362.306 323.200 C 362.248 335.960,362.335 346.400,362.500 346.400 C 362.665 346.400,362.800 335.960,362.800 323.200 C 362.800 310.440,362.713 300.000,362.606 300.000 C 362.500 300.000,362.365 310.440,362.306 323.200 M333.600 353.200 C 333.600 366.033,333.687 376.446,333.794 376.340 C 334.060 376.074,334.078 330.345,333.813 330.079 C 333.696 329.962,333.600 340.367,333.600 353.200 M251.790 363.498 L 269.580 363.608 269.705 369.904 L 269.830 376.200 269.815 369.800 L 269.800 363.400 251.900 363.394 L 234.000 363.388 251.790 363.498 " stroke="none" fill="#5496c5" fill-rule="evenodd"></path><path id="path3" d="M98.897 28.700 L 180.794 28.802 180.902 52.001 L 181.010 75.200 181.005 51.900 L 181.000 28.600 99.000 28.599 L 17.000 28.597 98.897 28.700 M226.299 28.698 L 249.998 28.806 250.101 95.103 L 250.204 161.400 250.202 95.000 L 250.200 28.600 226.400 28.595 L 202.600 28.590 226.299 28.698 M329.785 28.897 C 329.679 29.174,329.641 41.010,329.699 55.200 L 329.806 81.000 329.903 54.900 L 330.000 28.800 353.599 28.800 L 377.198 28.800 377.301 95.900 L 377.403 163.000 377.402 95.800 L 377.400 28.600 353.689 28.497 C 334.932 28.415,329.937 28.499,329.785 28.897 M330.187 138.200 C 330.187 150.520,330.238 155.618,330.300 149.528 C 330.362 143.439,330.362 133.359,330.300 127.128 C 330.238 120.898,330.187 125.880,330.187 138.200 M202.909 164.400 C 202.909 165.390,202.987 165.795,203.082 165.300 C 203.178 164.805,203.178 163.995,203.082 163.500 C 202.987 163.005,202.909 163.410,202.909 164.400 M203.293 168.400 C 203.293 169.170,203.375 169.485,203.476 169.100 C 203.576 168.715,203.576 168.085,203.476 167.700 C 203.375 167.315,203.293 167.630,203.293 168.400 M204.028 174.033 C 204.044 174.565,204.219 175.360,204.419 175.800 C 204.671 176.358,204.707 176.115,204.538 175.000 C 204.255 173.143,203.987 172.636,204.028 174.033 M261.200 185.725 C 261.200 185.794,261.785 186.379,262.500 187.025 L 263.800 188.200 262.625 186.900 C 261.530 185.688,261.200 185.416,261.200 185.725 M271.600 193.797 C 271.600 194.068,274.849 195.684,275.030 195.503 C 275.114 195.419,274.376 194.959,273.391 194.481 C 272.406 194.002,271.600 193.694,271.600 193.797 M297.384 198.100 C 296.820 199.574,297.415 244.937,298.000 245.097 C 298.451 245.220,298.474 245.172,298.094 244.903 C 297.693 244.620,297.609 239.650,297.694 221.072 C 297.752 208.162,297.749 197.600,297.687 197.600 C 297.626 197.600,297.489 197.825,297.384 198.100 M218.000 207.600 C 218.470 208.260,218.944 208.800,219.054 208.800 C 219.164 208.800,218.870 208.260,218.400 207.600 C 217.930 206.940,217.456 206.400,217.346 206.400 C 217.236 206.400,217.530 206.940,218.000 207.600 M353.387 217.700 L 351.000 220.200 353.500 217.813 C 354.875 216.499,356.000 215.374,356.000 215.313 C 356.000 215.017,355.605 215.378,353.387 217.700 M348.581 222.500 L 347.000 224.200 348.700 222.619 C 350.281 221.148,350.584 220.800,350.281 220.800 C 350.216 220.800,349.451 221.565,348.581 222.500 M248.800 234.998 C 248.800 235.267,252.849 237.284,253.029 237.105 C 253.111 237.023,252.193 236.473,250.989 235.882 C 249.785 235.292,248.800 234.894,248.800 234.998 M99.800 243.600 L 76.600 243.810 99.676 243.905 C 114.733 243.967,122.839 243.861,123.000 243.600 C 123.136 243.380,123.192 243.243,123.124 243.295 C 123.056 243.347,112.560 243.485,99.800 243.600 M279.300 244.676 C 279.685 244.776,280.315 244.776,280.700 244.676 C 281.085 244.575,280.770 244.493,280.000 244.493 C 279.230 244.493,278.915 244.575,279.300 244.676 M299.505 244.683 C 300.002 244.779,300.722 244.775,301.105 244.675 C 301.487 244.575,301.080 244.496,300.200 244.501 C 299.320 244.505,299.007 244.587,299.505 244.683 M166.992 338.400 C 166.992 359.630,167.041 368.315,167.100 357.700 C 167.159 347.085,167.159 329.715,167.100 319.100 C 167.041 308.485,166.992 317.170,166.992 338.400 M318.592 338.200 C 318.592 359.100,318.641 367.709,318.700 357.330 C 318.759 346.952,318.759 329.852,318.700 319.330 C 318.641 308.809,318.592 317.300,318.592 338.200 M114.629 303.429 C 114.481 304.015,114.438 304.572,114.532 304.666 C 114.627 304.760,114.824 304.358,114.971 303.771 C 115.119 303.185,115.162 302.628,115.068 302.534 C 114.973 302.440,114.776 302.842,114.629 303.429 M23.656 312.000 C 23.656 312.330,23.811 312.960,24.000 313.400 C 24.217 313.904,24.344 313.978,24.344 313.600 C 24.344 313.270,24.189 312.640,24.000 312.200 C 23.783 311.696,23.656 311.622,23.656 312.000 M348.349 325.400 C 348.565 325.840,349.034 326.560,349.393 327.000 L 350.044 327.800 349.651 327.000 C 349.435 326.560,348.966 325.840,348.607 325.400 L 347.956 324.600 348.349 325.400 M42.468 326.200 C 42.462 326.640,42.611 327.360,42.800 327.800 C 43.238 328.819,43.238 327.768,42.800 326.400 C 42.543 325.596,42.477 325.557,42.468 326.200 M241.700 331.499 C 245.825 331.564,252.575 331.564,256.700 331.499 C 260.825 331.434,257.450 331.381,249.200 331.381 C 240.950 331.381,237.575 331.434,241.700 331.499 M342.677 343.631 C 343.075 344.308,343.656 345.073,343.968 345.331 C 344.280 345.589,344.032 345.035,343.415 344.100 C 342.120 342.137,341.609 341.812,342.677 343.631 M249.000 344.400 L 233.800 344.614 249.100 344.707 C 259.095 344.768,264.400 344.661,264.400 344.400 C 264.400 344.180,264.355 344.042,264.300 344.093 C 264.245 344.144,257.360 344.282,249.000 344.400 M73.248 348.000 C 73.242 348.330,73.483 349.140,73.786 349.800 C 74.493 351.345,74.503 350.626,73.800 348.800 C 73.503 348.030,73.255 347.670,73.248 348.000 M87.307 348.121 C 87.413 348.940,88.098 349.107,88.342 348.374 C 88.431 348.107,88.316 348.005,88.086 348.147 C 87.856 348.289,87.566 348.179,87.441 347.902 C 87.316 347.626,87.256 347.725,87.307 348.121 M59.829 357.029 C 59.681 357.615,59.638 358.172,59.732 358.266 C 59.827 358.360,60.024 357.958,60.171 357.371 C 60.319 356.785,60.362 356.228,60.268 356.134 C 60.173 356.040,59.976 356.442,59.829 357.029 M55.829 370.229 C 55.681 370.815,55.638 371.372,55.732 371.466 C 55.827 371.560,56.024 371.158,56.171 370.571 C 56.319 369.985,56.362 369.428,56.268 369.334 C 56.173 369.240,55.976 369.642,55.829 370.229 M156.100 376.698 C 158.025 376.771,161.175 376.771,163.100 376.698 C 165.025 376.625,163.450 376.565,159.600 376.565 C 155.750 376.565,154.175 376.625,156.100 376.698 M232.129 376.700 C 239.130 376.761,250.470 376.761,257.329 376.700 C 264.188 376.638,258.460 376.588,244.600 376.588 C 230.740 376.588,225.128 376.639,232.129 376.700 M322.500 376.698 C 324.425 376.771,327.575 376.771,329.500 376.698 C 331.425 376.625,329.850 376.565,326.000 376.565 C 322.150 376.565,320.575 376.625,322.500 376.698 M367.300 376.698 C 369.225 376.771,372.375 376.771,374.300 376.698 C 376.225 376.625,374.650 376.565,370.800 376.565 C 366.950 376.565,365.375 376.625,367.300 376.698 " stroke="none" fill="#7bb4d4" fill-rule="evenodd"></path><path id="path4" d="M16.984 28.500 C 16.878 28.775,16.839 39.440,16.896 52.200 L 17.000 75.400 98.800 75.401 L 180.600 75.403 98.900 75.300 L 17.200 75.198 17.200 51.800 L 17.200 28.402 99.100 28.300 L 181.000 28.198 99.087 28.099 C 33.853 28.020,17.136 28.102,16.984 28.500 M202.662 28.300 C 202.493 28.572,220.132 28.568,241.800 28.291 C 246.420 28.232,239.546 28.142,226.524 28.092 C 213.502 28.041,202.764 28.135,202.662 28.300 M341.700 28.300 C 348.245 28.361,358.955 28.361,365.500 28.300 C 372.045 28.238,366.690 28.188,353.600 28.188 C 340.510 28.188,335.155 28.238,341.700 28.300 M181.387 52.000 C 181.387 64.870,181.438 70.135,181.500 63.700 C 181.562 57.265,181.562 46.735,181.500 40.300 C 181.438 33.865,181.387 39.130,181.387 52.000 M329.369 37.400 C 329.370 42.020,329.428 43.855,329.499 41.478 C 329.570 39.101,329.569 35.321,329.498 33.078 C 329.427 30.835,329.369 32.780,329.369 37.400 M84.600 88.691 C 106.291 88.968,123.507 88.972,123.338 88.700 C 123.236 88.535,112.588 88.441,99.676 88.492 C 86.764 88.542,79.980 88.632,84.600 88.691 M329.784 133.600 C 329.784 143.390,329.836 147.395,329.900 142.500 C 329.963 137.605,329.963 129.595,329.900 124.700 C 329.836 119.805,329.784 123.810,329.784 133.600 M202.509 161.200 C 202.509 162.190,202.587 162.595,202.682 162.100 C 202.778 161.605,202.778 160.795,202.682 160.300 C 202.587 159.805,202.509 160.210,202.509 161.200 M261.600 185.725 C 261.600 185.794,262.185 186.379,262.900 187.025 L 264.200 188.200 263.025 186.900 C 261.930 185.688,261.600 185.416,261.600 185.725 M354.975 216.500 L 353.800 217.800 355.100 216.625 C 355.815 215.979,356.400 215.394,356.400 215.325 C 356.400 215.016,356.070 215.288,354.975 216.500 M349.586 221.900 L 347.400 224.200 349.700 222.014 C 351.837 219.982,352.183 219.600,351.886 219.600 C 351.824 219.600,350.789 220.635,349.586 221.900 M88.329 244.300 C 94.779 244.362,105.219 244.362,111.529 244.300 C 117.838 244.238,112.560 244.187,99.800 244.187 C 87.040 244.187,81.878 244.238,88.329 244.300 M151.788 300.091 C 151.681 300.371,151.640 317.790,151.697 338.800 L 151.800 377.000 159.300 377.014 L 166.801 377.027 159.400 376.905 L 152.000 376.782 152.000 338.391 L 152.000 300.000 159.598 300.000 L 167.196 300.000 167.301 338.300 L 167.406 376.600 167.403 338.200 L 167.400 299.800 159.691 299.691 C 153.741 299.607,151.937 299.699,151.788 300.091 M231.529 299.900 C 238.640 299.961,250.160 299.961,257.129 299.900 C 264.098 299.838,258.280 299.788,244.200 299.788 C 230.120 299.788,224.418 299.839,231.529 299.900 M321.700 299.898 C 323.625 299.971,326.775 299.971,328.700 299.898 C 330.625 299.825,329.050 299.765,325.200 299.765 C 321.350 299.765,319.775 299.825,321.700 299.898 M370.300 299.896 L 377.600 300.018 377.600 338.399 L 377.600 376.781 371.000 376.905 L 364.399 377.030 371.100 377.015 L 377.800 377.000 377.800 338.400 L 377.800 299.800 370.400 299.787 L 363.000 299.774 370.300 299.896 M218.662 376.900 C 218.764 377.065,230.256 377.200,244.200 377.200 C 258.144 377.200,269.636 377.065,269.738 376.900 C 269.840 376.735,258.348 376.600,244.200 376.600 C 230.052 376.600,218.560 376.735,218.662 376.900 M318.662 376.900 C 318.764 377.065,322.156 377.200,326.200 377.200 C 330.244 377.200,333.636 377.065,333.738 376.900 C 333.840 376.735,330.448 376.600,326.200 376.600 C 321.952 376.600,318.560 376.735,318.662 376.900 M44.300 377.898 C 46.115 377.972,49.085 377.972,50.900 377.898 C 52.715 377.823,51.230 377.763,47.600 377.763 C 43.970 377.763,42.485 377.823,44.300 377.898 M85.519 377.898 C 87.344 377.972,90.224 377.972,91.919 377.897 C 93.614 377.822,92.120 377.761,88.600 377.762 C 85.080 377.762,83.694 377.824,85.519 377.898 " stroke="none" fill="#2b7cb4" fill-rule="evenodd"></path></g></svg>